<svg width="513" height="328" viewBox="0 0 513 328" fill="none" xmlns="http://www.w3.org/2000/svg">
<g clip-path="url(#clip0_2384_36247)">
<path opacity="0.25" fill-rule="evenodd" clip-rule="evenodd" d="M56 283.75H512V283.25H56V283.75Z" stroke="black" stroke-width="0.5" stroke-linecap="square"/>
<path opacity="0.15" d="M56 184H512" stroke="black" stroke-width="0.5" stroke-linecap="square"/>
<path opacity="0.15" d="M56 138H512" stroke="black" stroke-width="0.5" stroke-linecap="square"/>
<path opacity="0.15" d="M56 92H512" stroke="black" stroke-width="0.5" stroke-linecap="square"/>
<path opacity="0.15" d="M56 46L512 45" stroke="black" stroke-width="0.5" stroke-linecap="square"/>
<path opacity="0.15" d="M56 231H512" stroke="black" stroke-width="0.5" stroke-linecap="square"/>
</g>
<g clip-path="url(#clip1_2384_36247)">
<path opacity="0.45" d="M44.0664 273.609C45.1523 273.609 45.9375 274.057 46.4219 274.951C46.7969 275.643 46.9844 276.59 46.9844 277.793C46.9844 278.934 46.8145 279.877 46.4746 280.623C45.9824 281.693 45.1777 282.229 44.0605 282.229C43.0527 282.229 42.3027 281.791 41.8105 280.916C41.4004 280.186 41.1953 279.205 41.1953 277.975C41.1953 277.021 41.3184 276.203 41.5645 275.52C42.0254 274.246 42.8594 273.609 44.0664 273.609ZM44.0547 281.268C44.6016 281.268 45.0371 281.025 45.3613 280.541C45.6855 280.057 45.8477 279.154 45.8477 277.834C45.8477 276.881 45.7305 276.098 45.4961 275.484C45.2617 274.867 44.8066 274.559 44.1309 274.559C43.5098 274.559 43.0547 274.852 42.7656 275.438C42.4805 276.02 42.3379 276.879 42.3379 278.016C42.3379 278.871 42.4297 279.559 42.6133 280.078C42.8945 280.871 43.375 281.268 44.0547 281.268Z" fill="black"/>
<path opacity="0.45" d="M28.6469 226.609C29.7328 226.609 30.518 227.057 31.0023 227.951C31.3773 228.643 31.5648 229.59 31.5648 230.793C31.5648 231.934 31.3949 232.877 31.0551 233.623C30.5629 234.693 29.7582 235.229 28.641 235.229C27.6332 235.229 26.8832 234.791 26.391 233.916C25.9809 233.186 25.7758 232.205 25.7758 230.975C25.7758 230.021 25.8988 229.203 26.1449 228.52C26.6059 227.246 27.4398 226.609 28.6469 226.609ZM28.6352 234.268C29.182 234.268 29.6176 234.025 29.9418 233.541C30.266 233.057 30.4281 232.154 30.4281 230.834C30.4281 229.881 30.3109 229.098 30.0766 228.484C29.8422 227.867 29.3871 227.559 28.7113 227.559C28.0902 227.559 27.6352 227.852 27.3461 228.438C27.0609 229.02 26.9184 229.879 26.9184 231.016C26.9184 231.871 27.0102 232.559 27.1938 233.078C27.475 233.871 27.9555 234.268 28.6352 234.268ZM32.9059 233.723H34.1305V235H32.9059V233.723ZM36.5027 232.861C36.573 233.463 36.8523 233.879 37.3406 234.109C37.5906 234.227 37.8797 234.285 38.2078 234.285C38.8328 234.285 39.2957 234.086 39.5965 233.688C39.8973 233.289 40.0477 232.848 40.0477 232.363C40.0477 231.777 39.868 231.324 39.5086 231.004C39.1531 230.684 38.7254 230.523 38.2254 230.523C37.8621 230.523 37.5496 230.594 37.2879 230.734C37.0301 230.875 36.8094 231.07 36.6258 231.32L35.7117 231.268L36.3504 226.75H40.7098V227.77H37.1414L36.784 230.102C36.9793 229.953 37.1648 229.842 37.3406 229.768C37.6531 229.639 38.0145 229.574 38.4246 229.574C39.1941 229.574 39.8465 229.822 40.3816 230.318C40.9168 230.814 41.1844 231.443 41.1844 232.205C41.1844 232.998 40.9383 233.697 40.4461 234.303C39.9578 234.908 39.1766 235.211 38.1023 235.211C37.4188 235.211 36.8133 235.02 36.2859 234.637C35.7625 234.25 35.4695 233.658 35.407 232.861H36.5027ZM42.25 226.393H43.2637V231.391L45.9707 228.725H47.3184L44.916 231.074L47.4531 235H46.1055L44.1484 231.836L43.2637 232.645V235H42.25V226.393Z" fill="black"/>
<path opacity="0.45" d="M26.5492 182.059V181.25C27.3109 181.176 27.8422 181.053 28.143 180.881C28.4438 180.705 28.6684 180.293 28.8168 179.645H29.6488V188H28.5238V182.059H26.5492ZM32.9059 186.723H34.1305V188H32.9059V186.723ZM38.2664 179.609C39.3523 179.609 40.1375 180.057 40.6219 180.951C40.9969 181.643 41.1844 182.59 41.1844 183.793C41.1844 184.934 41.0145 185.877 40.6746 186.623C40.1824 187.693 39.3777 188.229 38.2605 188.229C37.2527 188.229 36.5027 187.791 36.0105 186.916C35.6004 186.186 35.3953 185.205 35.3953 183.975C35.3953 183.021 35.5184 182.203 35.7645 181.52C36.2254 180.246 37.0594 179.609 38.2664 179.609ZM38.2547 187.268C38.8016 187.268 39.2371 187.025 39.5613 186.541C39.8855 186.057 40.0477 185.154 40.0477 183.834C40.0477 182.881 39.9305 182.098 39.6961 181.484C39.4617 180.867 39.0066 180.559 38.3309 180.559C37.7098 180.559 37.2547 180.852 36.9656 181.438C36.6805 182.02 36.5379 182.879 36.5379 184.016C36.5379 184.871 36.6297 185.559 36.8133 186.078C37.0945 186.871 37.575 187.268 38.2547 187.268ZM42.25 179.393H43.2637V184.391L45.9707 181.725H47.3184L44.916 184.074L47.4531 188H46.1055L44.1484 184.836L43.2637 185.645V188H42.25V179.393Z" fill="black"/>
<path opacity="0.45" d="M26.5492 136.059V135.25C27.3109 135.176 27.8422 135.053 28.143 134.881C28.4438 134.705 28.6684 134.293 28.8168 133.645H29.6488V142H28.5238V136.059H26.5492ZM32.9059 140.723H34.1305V142H32.9059V140.723ZM36.5027 139.861C36.573 140.463 36.8523 140.879 37.3406 141.109C37.5906 141.227 37.8797 141.285 38.2078 141.285C38.8328 141.285 39.2957 141.086 39.5965 140.688C39.8973 140.289 40.0477 139.848 40.0477 139.363C40.0477 138.777 39.868 138.324 39.5086 138.004C39.1531 137.684 38.7254 137.523 38.2254 137.523C37.8621 137.523 37.5496 137.594 37.2879 137.734C37.0301 137.875 36.8094 138.07 36.6258 138.32L35.7117 138.268L36.3504 133.75H40.7098V134.77H37.1414L36.784 137.102C36.9793 136.953 37.1648 136.842 37.3406 136.768C37.6531 136.639 38.0145 136.574 38.4246 136.574C39.1941 136.574 39.8465 136.822 40.3816 137.318C40.9168 137.814 41.1844 138.443 41.1844 139.205C41.1844 139.998 40.9383 140.697 40.4461 141.303C39.9578 141.908 39.1766 142.211 38.1023 142.211C37.4188 142.211 36.8133 142.02 36.2859 141.637C35.7625 141.25 35.4695 140.658 35.407 139.861H36.5027ZM42.25 133.393H43.2637V138.391L45.9707 135.725H47.3184L44.916 138.074L47.4531 142H46.1055L44.1484 138.836L43.2637 139.645V142H42.25V133.393Z" fill="black"/>
<path opacity="0.45" d="M25.7758 50C25.8148 49.2773 25.9633 48.6484 26.2211 48.1133C26.4828 47.5781 26.9906 47.0918 27.7445 46.6543L28.8695 46.0039C29.3734 45.7109 29.727 45.4609 29.9301 45.2539C30.2504 44.9297 30.4105 44.5586 30.4105 44.1406C30.4105 43.6523 30.2641 43.2656 29.9711 42.9805C29.6781 42.6914 29.2875 42.5469 28.7992 42.5469C28.0766 42.5469 27.5766 42.8203 27.2992 43.3672C27.1508 43.6602 27.0688 44.0664 27.0531 44.5859H25.9809C25.9926 43.8555 26.1273 43.2598 26.3852 42.7988C26.8422 41.9863 27.6488 41.5801 28.8051 41.5801C29.766 41.5801 30.4672 41.8398 30.9086 42.3594C31.3539 42.8789 31.5766 43.457 31.5766 44.0938C31.5766 44.7656 31.3402 45.3398 30.8676 45.8164C30.5941 46.0938 30.1039 46.4297 29.3969 46.8242L28.5941 47.2695C28.2113 47.4805 27.9105 47.6816 27.6918 47.873C27.3012 48.2129 27.0551 48.5898 26.9535 49.0039H31.5355V50H25.7758ZM32.9059 48.7227H34.1305V50H32.9059V48.7227ZM36.5027 47.8613C36.573 48.4629 36.8523 48.8789 37.3406 49.1094C37.5906 49.2266 37.8797 49.2852 38.2078 49.2852C38.8328 49.2852 39.2957 49.0859 39.5965 48.6875C39.8973 48.2891 40.0477 47.8477 40.0477 47.3633C40.0477 46.7773 39.868 46.3242 39.5086 46.0039C39.1531 45.6836 38.7254 45.5234 38.2254 45.5234C37.8621 45.5234 37.5496 45.5938 37.2879 45.7344C37.0301 45.875 36.8094 46.0703 36.6258 46.3203L35.7117 46.2676L36.3504 41.75H40.7098V42.7695H37.1414L36.784 45.1016C36.9793 44.9531 37.1648 44.8418 37.3406 44.7676C37.6531 44.6387 38.0145 44.5742 38.4246 44.5742C39.1941 44.5742 39.8465 44.8223 40.3816 45.3184C40.9168 45.8145 41.1844 46.4434 41.1844 47.2051C41.1844 47.998 40.9383 48.6973 40.4461 49.3027C39.9578 49.9082 39.1766 50.2109 38.1023 50.2109C37.4188 50.2109 36.8133 50.0195 36.2859 49.6367C35.7625 49.25 35.4695 48.6582 35.407 47.8613H36.5027ZM42.25 41.3926H43.2637V46.3906L45.9707 43.7246H47.3184L44.916 46.0742L47.4531 50H46.1055L44.1484 46.8359L43.2637 47.6445V50H42.25V41.3926Z" fill="black"/>
<path opacity="0.45" d="M25.7758 95C25.8148 94.2773 25.9633 93.6484 26.2211 93.1133C26.4828 92.5781 26.9906 92.0918 27.7445 91.6543L28.8695 91.0039C29.3734 90.7109 29.727 90.4609 29.9301 90.2539C30.2504 89.9297 30.4105 89.5586 30.4105 89.1406C30.4105 88.6523 30.2641 88.2656 29.9711 87.9805C29.6781 87.6914 29.2875 87.5469 28.7992 87.5469C28.0766 87.5469 27.5766 87.8203 27.2992 88.3672C27.1508 88.6602 27.0688 89.0664 27.0531 89.5859H25.9809C25.9926 88.8555 26.1273 88.2598 26.3852 87.7988C26.8422 86.9863 27.6488 86.5801 28.8051 86.5801C29.766 86.5801 30.4672 86.8398 30.9086 87.3594C31.3539 87.8789 31.5766 88.457 31.5766 89.0938C31.5766 89.7656 31.3402 90.3398 30.8676 90.8164C30.5941 91.0938 30.1039 91.4297 29.3969 91.8242L28.5941 92.2695C28.2113 92.4805 27.9105 92.6816 27.6918 92.873C27.3012 93.2129 27.0551 93.5898 26.9535 94.0039H31.5355V95H25.7758ZM32.9059 93.7227H34.1305V95H32.9059V93.7227ZM38.2664 86.6094C39.3523 86.6094 40.1375 87.0566 40.6219 87.9512C40.9969 88.6426 41.1844 89.5898 41.1844 90.793C41.1844 91.9336 41.0145 92.877 40.6746 93.623C40.1824 94.6934 39.3777 95.2285 38.2605 95.2285C37.2527 95.2285 36.5027 94.791 36.0105 93.916C35.6004 93.1855 35.3953 92.2051 35.3953 90.9746C35.3953 90.0215 35.5184 89.2031 35.7645 88.5195C36.2254 87.2461 37.0594 86.6094 38.2664 86.6094ZM38.2547 94.2676C38.8016 94.2676 39.2371 94.0254 39.5613 93.541C39.8855 93.0566 40.0477 92.1543 40.0477 90.834C40.0477 89.8809 39.9305 89.0977 39.6961 88.4844C39.4617 87.8672 39.0066 87.5586 38.3309 87.5586C37.7098 87.5586 37.2547 87.8516 36.9656 88.4375C36.6805 89.0195 36.5379 89.8789 36.5379 91.0156C36.5379 91.8711 36.6297 92.5586 36.8133 93.0781C37.0945 93.8711 37.575 94.2676 38.2547 94.2676ZM42.25 86.3926H43.2637V91.3906L45.9707 88.7246H47.3184L44.916 91.0742L47.4531 95H46.1055L44.1484 91.8359L43.2637 92.6445V95H42.25V86.3926Z" fill="black"/>
</g>
<path opacity="0.95" fill-rule="evenodd" clip-rule="evenodd" d="M69 199L115 199V284H69V199Z" fill="#5B8FF9"/>
<path opacity="0.95" fill-rule="evenodd" clip-rule="evenodd" d="M145 128L191 128V284H145V128Z" fill="#2DD4BF"/>
<path opacity="0.95" fill-rule="evenodd" clip-rule="evenodd" d="M223 224L269 224V284H223V224Z" fill="#38BDF8"/>
<path opacity="0.95" fill-rule="evenodd" clip-rule="evenodd" d="M300 71H346V284H300V71Z" fill="#FDBA74"/>
<path opacity="0.95" fill-rule="evenodd" clip-rule="evenodd" d="M376 199L422 199V284H376V199Z" fill="#F472B6"/>
<path opacity="0.95" fill-rule="evenodd" clip-rule="evenodd" d="M452 172L498 172V284H452V172Z" fill="#FB7185"/>
<defs>
<clipPath id="clip0_2384_36247">
<rect width="457" height="239" fill="white" transform="translate(55.5 45)"/>
</clipPath>
<clipPath id="clip1_2384_36247">
<rect width="23" height="244" fill="white" transform="translate(24.5 40)"/>
</clipPath>
</defs>
</svg>
