<svg width="268" height="198" viewBox="0 0 268 198" fill="none" xmlns="http://www.w3.org/2000/svg">
<path fill-rule="evenodd" clip-rule="evenodd" d="M43.8949 133.868L99.1183 122.21C102.44 121.505 104.564 118.241 103.868 114.913L94.3915 69.8889C93.6876 66.5627 90.428 64.4349 87.1051 65.1324L31.8817 76.7898C28.5604 77.4948 26.4357 80.7592 27.1322 84.087L36.6085 129.111C37.3124 132.437 40.572 134.565 43.8949 133.868ZM27.8402 83.9375C27.2257 81.0012 29.1004 78.1209 32.0309 77.4988L87.2544 65.8414C90.1863 65.226 93.0624 67.1035 93.6835 70.0383L103.16 115.062C103.774 117.999 101.9 120.879 98.9691 121.501L43.7456 133.159C40.8137 133.774 37.9376 131.897 37.3165 128.962L27.8402 83.9375Z" fill="#3F3D56"/>
<path d="M84.2404 79.9922L56.2076 85.9738C55.6986 86.0934 55.1851 85.7934 55.0325 85.2875C54.9646 85.0305 55.004 84.7566 55.1416 84.5299C55.2791 84.3032 55.5026 84.1437 55.7598 84.0888L84.2954 78C85.4096 78.6356 85.0575 79.8179 84.24 79.9923L84.2404 79.9922Z" fill="#CCCCCC"/>
<path d="M85.2404 83.9923L57.2076 89.9738C56.6986 90.0934 56.1851 89.7934 56.0325 89.2875C55.9646 89.0305 56.004 88.7566 56.1416 88.5299C56.2791 88.3032 56.5026 88.1437 56.7598 88.0888L85.2954 82C86.4096 82.6356 86.0575 83.8179 85.24 83.9923L85.2404 83.9923Z" fill="#CCCCCC"/>
<path d="M51.1345 94.1804L42.4704 95.9769C41.8813 96.0985 41.3033 95.7279 41.1786 95.1485L39.0235 85.0904C38.8999 84.5109 39.2766 83.9423 39.8655 83.8196L48.5296 82.023C49.1187 81.9017 49.6965 82.2722 49.8214 82.8514L51.9765 92.9095C52.1001 93.4891 51.7234 94.0577 51.1345 94.1804L51.1345 94.1804Z" fill="#CCCCCC"/>
<path d="M87.2358 94.966L44.2143 103.974C43.7025 104.092 43.1861 103.796 43.0327 103.297C42.9644 103.043 43.004 102.773 43.1423 102.549C43.2806 102.326 43.5054 102.168 43.764 102.114L87.2915 93C88.4119 93.6272 88.0578 94.7939 87.2358 94.966Z" fill="#CCCCCC"/>
<path d="M88.2358 99.966L45.2143 108.974C44.7025 109.092 44.1861 108.796 44.0327 108.297C43.9644 108.043 44.004 107.773 44.1423 107.549C44.2806 107.326 44.5054 107.168 44.764 107.114L88.2915 98C89.4119 98.6272 89.0578 99.7939 88.2358 99.966H88.2358Z" fill="#CCCCCC"/>
<path d="M89.2358 103.966L46.2143 112.974C45.7025 113.092 45.1861 112.796 45.0327 112.297C44.9644 112.043 45.004 111.773 45.1423 111.549C45.2806 111.326 45.5054 111.168 45.764 111.114L89.2915 102C90.4119 102.627 90.0578 103.794 89.2358 103.966H89.2358Z" fill="#CCCCCC"/>
<path d="M90.2358 108.966L47.2143 117.974C46.7025 118.092 46.1861 117.796 46.0327 117.297C45.9644 117.043 46.004 116.773 46.1423 116.549C46.2806 116.326 46.5054 116.168 46.764 116.114L90.2915 107C91.4119 107.627 91.0578 108.794 90.2358 108.966Z" fill="#CCCCCC"/>
<path d="M91.2358 113.966L48.2143 122.974C47.7025 123.092 47.1861 122.796 47.0327 122.297C46.9644 122.043 47.004 121.773 47.1423 121.549C47.2806 121.326 47.5054 121.168 47.764 121.114L91.2915 112C92.4119 112.627 92.0578 113.794 91.2358 113.966Z" fill="#CCCCCC"/>
<path d="M97.9162 91.9697C97.82 92.1475 97.7376 92.3328 97.67 92.5237L80.324 96.9055L77.3065 93.7277L72 97.7367L76.8049 103.891C77.6023 104.912 78.9661 105.275 80.1524 104.782L98.9744 96.9523C100.241 97.9015 101.953 97.9537 103.273 97.0835C104.593 96.2133 105.247 94.6023 104.914 93.0373C104.582 91.4723 103.333 90.28 101.778 90.0427C100.222 89.8054 98.6846 90.5727 97.9162 91.9698L97.9162 91.9697Z" fill="#FFB8B8"/>
<path d="M37.9865 130.815C39.0641 130.471 39.9389 129.652 40.3756 128.577C40.8123 127.503 40.766 126.283 40.2491 125.247L52 91.4946L43.8394 90L34.8548 123.648C33.1918 124.683 32.5411 126.841 33.34 128.669C34.139 130.498 36.1352 131.42 37.9865 130.815V130.815Z" fill="#FFB8B8"/>
<path d="M51.4131 97.8806L43.1276 94.6265C42.6505 94.4391 42.2768 94.0485 42.1038 93.5565C41.9308 93.0645 41.9756 92.5198 42.2266 92.0644L46.5732 84.1778C47.5519 81.6145 50.3726 80.3446 52.8805 81.3382C55.3884 82.3318 56.6381 85.2144 55.675 87.7839L53.7578 96.5932C53.6465 97.1036 53.3237 97.5391 52.8735 97.7863C52.4232 98.0335 51.8901 98.068 51.4131 97.8806V97.8806Z" fill="#3E7EFF"/>
<path d="M69.0008 193H73.7434L76 176L69 176L69.0008 193Z" fill="#FFB8B8"/>
<path d="M69 192L77.5505 192H77.5509C78.9961 192 80.3821 192.612 81.404 193.702C82.4259 194.792 83 196.27 83 197.811V197.999L69.0003 198L69 192Z" fill="#2F2E41"/>
<path d="M44.0008 193H48.7434L51 176L44 176L44.0008 193Z" fill="#FFB8B8"/>
<path d="M44 192L52.5505 192H52.5509C53.9961 192 55.3821 192.612 56.404 193.702C57.4259 194.792 58 196.27 58 197.811V197.999L44.0003 198L44 192Z" fill="#2F2E41"/>
<path d="M49.1893 186H43.6164C43.1744 186 42.7517 185.817 42.4466 185.493C42.1416 185.169 41.9809 184.733 42.0018 184.286L44.6489 126.715L44.8157 126.71L71.7267 126L76.9928 183.604C77.0337 184.04 76.9 184.475 76.6218 184.811C76.3436 185.146 75.944 185.355 75.5126 185.39L69.253 185.897C68.4393 185.962 67.705 185.404 67.5407 184.594L59.534 143.588C59.4889 143.33 59.2645 143.145 59.0063 143.151H59.0041C58.745 143.146 58.5208 143.333 58.4774 143.592L50.7752 184.68C50.6248 185.446 49.9611 185.999 49.1893 186Z" fill="#2F2E41"/>
<circle cx="60" cy="67" r="9" fill="#FFB8B8"/>
<path d="M56.7068 134C52.4801 134 48.1387 132.886 44.5397 129.593C44.1512 129.24 43.9541 128.723 44.0091 128.2C44.3943 124.73 46.2629 106.815 45.2106 94.8483C44.7942 90.3165 46.5266 85.8521 49.8884 82.7936C53.1912 79.7421 57.7326 78.4238 62.1509 79.2342H62.151C62.2615 79.2539 62.3718 79.2748 62.4824 79.296C69.5822 80.6735 74.5152 87.2604 73.957 94.6178C73.1425 105.353 72.4123 119.875 73.5588 128.087C73.6562 128.776 73.3058 129.45 72.6869 129.765C70.0783 131.086 63.5425 134 56.7068 134Z" fill="#3E7EFF"/>
<path d="M67.9918 97.7137C67.5767 97.4389 67.3025 96.9978 67.2409 96.5056L66.1757 88.0096C65.4717 85.4939 66.9465 82.8858 69.4731 82.1784C71.9998 81.4709 74.6254 82.9309 75.3435 85.4426L78.8521 93.291C79.0547 93.7443 79.0489 94.2628 78.8363 94.7115C78.6237 95.1602 78.2254 95.4946 77.745 95.6276L69.402 97.9374C68.9216 98.0706 68.4067 97.989 67.9918 97.7137Z" fill="#3E7EFF"/>
<path d="M56.549 75.9989C55.714 76.0149 54.8841 75.8593 54.1075 75.541C53.7658 75.4044 53.411 75.2922 53.07 75.1556C50.0576 73.9491 48.0732 70.6234 48.0022 67.2765C47.9311 63.9296 49.6031 60.6811 52.0858 58.5402C54.5685 56.3994 57.7843 55.3003 61.0043 55.0461C64.4728 54.7723 68.3785 55.6842 70.3167 58.6786C70.8326 59.4757 71.1934 60.4428 70.8877 61.4052C70.7961 61.6956 70.6326 61.956 70.4135 62.1603C69.5479 62.9586 68.685 62.3583 67.8026 62.3053C66.5898 62.2324 65.5005 63.2501 65.109 64.4423C64.7175 65.6344 64.8898 66.9469 65.2059 68.1629C65.4468 68.8946 65.5986 69.6546 65.6579 70.4253C65.7098 71.211 65.3659 71.9686 64.7488 72.428C63.991 72.9028 62.9957 72.628 62.2374 72.1539C61.4791 71.6798 60.8239 71.0206 60.0048 70.6717C59.1857 70.3228 58.0852 70.4002 57.6085 71.1738C57.457 71.4553 57.3544 71.7622 57.3055 72.0805C56.8781 74.0991 56.9764 73.9803 56.549 75.9989V75.9989Z" fill="#2F2E41"/>
<path fill-rule="evenodd" clip-rule="evenodd" d="M123.174 64H179.826C183.234 63.9961 185.996 61.2092 186 57.7702V11.2298C185.996 7.79079 183.234 5.00387 179.826 5H123.174C119.766 5.00387 117.004 7.79079 117 11.2298V57.7702C117.004 61.2092 119.766 63.9961 123.174 64ZM117.726 11.2298C117.73 8.19539 120.167 5.73635 123.174 5.73292H179.826C182.833 5.73635 185.27 8.19539 185.274 11.2298V57.7702C185.27 60.8046 182.833 63.2636 179.826 63.2671H123.174C120.167 63.2636 117.73 60.8046 117.726 57.7702V11.2298Z" fill="#3F3D56"/>
<path d="M174.031 18.9998H145.024C144.495 19.0109 144.048 18.5974 144.001 18.0537C143.987 17.7795 144.083 17.5114 144.266 17.3121C144.449 17.1129 144.703 17 144.969 17H174.497C175.469 17.8819 174.877 18.9998 174.031 18.9998L174.031 18.9998Z" fill="#CCCCCC"/>
<path d="M174.031 23.9998H145.024C144.495 24.0109 144.048 23.5974 144.001 23.0537C143.987 22.7795 144.083 22.5114 144.266 22.3121C144.449 22.1129 144.703 22 144.969 22H174.497C175.469 22.8819 174.877 23.9998 174.031 23.9998L174.031 23.9998Z" fill="#CCCCCC"/>
<path d="M138.913 26H130.087C129.487 25.9994 129.001 25.5359 129 24.964V15.036C129.001 14.4641 129.487 14.0006 130.087 14H138.913C139.513 14.0008 139.999 14.4642 140 15.036V24.964C139.999 25.5359 139.513 25.9994 138.913 26Z" fill="#3F3D56"/>
<path d="M174.036 33.9998H130.018C129.492 34.0109 129.048 33.5974 129.001 33.0537C128.987 32.7795 129.082 32.5114 129.264 32.3121C129.446 32.1129 129.699 32 129.964 32H174.5C175.467 32.8819 174.877 33.9998 174.036 33.9998V33.9998Z" fill="#CCCCCC"/>
<path d="M174.036 38.9998H130.018C129.492 39.0109 129.048 38.5974 129.001 38.0537C128.987 37.7795 129.082 37.5114 129.264 37.3121C129.446 37.1129 129.699 37 129.964 37H174.5C175.467 37.8819 174.877 38.9998 174.036 38.9998V38.9998Z" fill="#CCCCCC"/>
<path d="M174.036 43.9998H130.018C129.492 44.0109 129.048 43.5974 129.001 43.0537C128.987 42.7795 129.082 42.5114 129.264 42.3121C129.446 42.1129 129.699 42 129.964 42H174.5C175.467 42.8819 174.877 43.9998 174.036 43.9998V43.9998Z" fill="#CCCCCC"/>
<path d="M174.036 48.9998H130.018C129.492 49.0109 129.048 48.5974 129.001 48.0537C128.987 47.7795 129.082 47.5114 129.264 47.3121C129.446 47.1129 129.699 47 129.964 47H174.5C175.467 47.8819 174.877 48.9998 174.036 48.9998V48.9998Z" fill="#CCCCCC"/>
<path d="M174.036 53.9998H130.018C129.492 54.0109 129.048 53.5974 129.001 53.0537C128.987 52.7795 129.082 52.5114 129.264 52.3121C129.446 52.1129 129.699 52 129.964 52H174.5C175.467 52.8819 174.877 53.9998 174.036 53.9998Z" fill="#CCCCCC"/>
<path d="M168.163 0C169.177 0.00109304 169.999 0.775345 170 1.73077V7.26923C169.999 8.22466 169.177 8.99891 168.163 9H135.837C134.823 8.99891 134.001 8.22466 134 7.26923V1.73077C134.001 0.775345 134.823 0.00109304 135.837 0" fill="#3E7EFF"/>
<path fill-rule="evenodd" clip-rule="evenodd" d="M205.174 121H261.826C265.234 120.996 267.996 118.209 268 114.77V68.2298C267.996 64.7908 265.234 62.0039 261.826 62H205.174C201.766 62.0039 199.004 64.7908 199 68.2298V114.77C199.004 118.209 201.766 120.996 205.174 121ZM199.726 68.2298C199.73 65.1954 202.167 62.7364 205.174 62.7329H261.826C264.833 62.7364 267.27 65.1954 267.274 68.2298V114.77C267.27 117.805 264.833 120.264 261.826 120.267H205.174C202.167 120.264 199.73 117.805 199.726 114.77V68.2298Z" fill="#3F3D56"/>
<path d="M256.031 75.9998H227.024C226.495 76.0109 226.048 75.5974 226.001 75.0537C225.987 74.7795 226.083 74.5114 226.266 74.3121C226.449 74.1129 226.703 74 226.969 74H256.497C257.469 74.8819 256.877 75.9998 256.031 75.9998L256.031 75.9998Z" fill="#3F3D56"/>
<path d="M256.031 80.9998H227.024C226.495 81.0109 226.048 80.5974 226.001 80.0537C225.987 79.7795 226.083 79.5114 226.266 79.3121C226.449 79.1129 226.703 79 226.969 79H256.497C257.469 79.8819 256.877 80.9998 256.031 80.9998L256.031 80.9998Z" fill="#3F3D56"/>
<path d="M220.913 83H212.087C211.487 82.9994 211.001 82.5359 211 81.964V72.036C211.001 71.4641 211.487 71.0006 212.087 71H220.913C221.513 71.0008 221.999 71.4642 222 72.036V81.964C221.999 82.5359 221.513 82.9994 220.913 83Z" fill="#CCCCCC"/>
<path d="M255.913 112H247.087C246.487 111.999 246.001 111.524 246 110.937V105.063C246.001 104.476 246.487 104.001 247.087 104H255.913C256.513 104.001 256.999 104.476 257 105.063V110.937C256.999 111.524 256.513 111.999 255.913 112Z" fill="#3F3D56"/>
<path d="M256.036 90.9998H212.018C211.492 91.0109 211.048 90.5974 211.001 90.0537C210.987 89.7795 211.082 89.5114 211.264 89.3121C211.446 89.1129 211.699 89 211.964 89H256.5C257.467 89.8819 256.877 90.9998 256.036 90.9998V90.9998Z" fill="#CCCCCC"/>
<path d="M256.036 95.9998H212.018C211.492 96.0109 211.048 95.5974 211.001 95.0537C210.987 94.7795 211.082 94.5114 211.264 94.3121C211.446 94.1129 211.699 94 211.964 94H256.5C257.467 94.8819 256.877 95.9998 256.036 95.9998V95.9998Z" fill="#CCCCCC"/>
<path d="M256.036 101H212.018C211.492 101.011 211.048 100.597 211.001 100.054C210.987 99.7795 211.082 99.5114 211.264 99.3121C211.446 99.1129 211.699 99 211.964 99H256.5C257.467 99.8819 256.877 101 256.036 101V101Z" fill="#CCCCCC"/>
<path d="M233.033 106H212.022C211.494 106.011 211.048 105.597 211.001 105.054C210.987 104.78 211.082 104.511 211.265 104.312C211.448 104.113 211.702 104 211.967 104H233.498C234.468 104.882 233.877 106 233.033 106V106Z" fill="#CCCCCC"/>
<path d="M233.033 111H212.022C211.494 111.011 211.048 110.597 211.001 110.054C210.987 109.78 211.082 109.511 211.265 109.312C211.448 109.113 211.702 109 211.967 109H233.498C234.468 109.882 233.877 111 233.033 111Z" fill="#CCCCCC"/>
<path d="M250.163 66H217.837C216.823 65.9989 216.001 65.2247 216 64.2692V58.7308C216.001 57.7753 216.823 57.0011 217.837 57H250.163C251.177 57.0011 251.999 57.7753 252 58.7308V64.2692C251.999 65.2247 251.177 65.9989 250.163 66Z" fill="#3E7EFF"/>
<path d="M138.637 198H0.362924C0.162487 198 0 197.776 0 197.5C0 197.224 0.162487 197 0.362924 197H138.637C138.838 197 139 197.224 139 197.5C139 197.776 138.838 198 138.637 198Z" fill="#3F3D56"/>
<circle cx="35.5" cy="8.5" r="2.5" fill="#F2F2F2"/>
<circle cx="35.5" cy="17.5" r="2.5" fill="#F2F2F2"/>
<circle cx="35.5" cy="27.5" r="2.5" fill="#F2F2F2"/>
<circle cx="35.5" cy="36.5" r="2.5" fill="#F2F2F2"/>
<circle cx="45.5" cy="8.5" r="2.5" fill="#F2F2F2"/>
<circle cx="45.5" cy="17.5" r="2.5" fill="#F2F2F2"/>
<circle cx="45.5" cy="27.5" r="2.5" fill="#F2F2F2"/>
<circle cx="45.5" cy="36.5" r="2.5" fill="#F2F2F2"/>
<circle cx="54.5" cy="8.5" r="2.5" fill="#F2F2F2"/>
<circle cx="54.5" cy="17.5" r="2.5" fill="#F2F2F2"/>
<circle cx="54.5" cy="27.5" r="2.5" fill="#F2F2F2"/>
<circle cx="54.5" cy="36.5" r="2.5" fill="#F2F2F2"/>
<circle cx="64.5" cy="8.5" r="2.5" fill="#F2F2F2"/>
<circle cx="64.5" cy="17.5" r="2.5" fill="#F2F2F2"/>
<circle cx="64.5" cy="27.5" r="2.5" fill="#F2F2F2"/>
<circle cx="64.5" cy="36.5" r="2.5" fill="#F2F2F2"/>
<circle cx="74.5" cy="8.5" r="2.5" fill="#F2F2F2"/>
<circle cx="74.5" cy="17.5" r="2.5" fill="#F2F2F2"/>
<circle cx="74.5" cy="27.5" r="2.5" fill="#F2F2F2"/>
<circle cx="74.5" cy="36.5" r="2.5" fill="#F2F2F2"/>
<circle cx="84.5" cy="8.5" r="2.5" fill="#F2F2F2"/>
<circle cx="84.5" cy="17.5" r="2.5" fill="#F2F2F2"/>
<circle cx="84.5" cy="27.5" r="2.5" fill="#F2F2F2"/>
<circle cx="84.5" cy="36.5" r="2.5" fill="#F2F2F2"/>
<circle cx="219.5" cy="138.5" r="2.5" fill="#F2F2F2"/>
<circle cx="219.5" cy="148.5" r="2.5" fill="#F2F2F2"/>
<circle cx="219.5" cy="157.5" r="2.5" fill="#F2F2F2"/>
<circle cx="228.5" cy="138.5" r="2.5" fill="#F2F2F2"/>
<circle cx="228.5" cy="148.5" r="2.5" fill="#F2F2F2"/>
<circle cx="228.5" cy="157.5" r="2.5" fill="#F2F2F2"/>
<circle cx="238.5" cy="138.5" r="2.5" fill="#F2F2F2"/>
<circle cx="238.5" cy="148.5" r="2.5" fill="#F2F2F2"/>
<circle cx="238.5" cy="157.5" r="2.5" fill="#F2F2F2"/>
<circle cx="248.5" cy="138.5" r="2.5" fill="#F2F2F2"/>
<circle cx="248.5" cy="148.5" r="2.5" fill="#F2F2F2"/>
<circle cx="248.5" cy="157.5" r="2.5" fill="#F2F2F2"/>
</svg>
