<svg width="222" height="213" viewBox="0 0 222 213" fill="none" xmlns="http://www.w3.org/2000/svg">
<path d="M45.2412 197.333H176.756C180.371 197.342 183.855 195.976 186.511 193.509C197.59 183.19 206.453 170.7 212.555 156.806C218.658 142.913 221.87 127.911 221.995 112.722C222.563 50.9628 172.66 0.14607 111.268 0.000317879C49.8412 -0.145517 7.29377e-05 49.9062 7.29377e-05 111.669C-0.0174675 127.041 3.12884 142.251 9.24088 156.34C15.3529 170.429 24.2983 183.092 35.5138 193.532C38.164 195.988 41.6383 197.345 45.2412 197.333Z" fill="url(#paint0_linear_1856_37472)"/>
<path d="M68.9427 108.319C66.7628 107.281 64.856 105.747 63.3746 103.84C61.8933 101.933 60.8785 99.7064 60.4114 97.3375L59.0141 90.252L49.5572 93.2903L40.1002 90.252L38.703 97.3375C38.2358 99.7064 37.221 101.933 35.7397 103.84C34.2583 105.747 32.3516 107.281 30.1717 108.319L18.1853 114.029C16.0342 115.054 14.3006 116.787 13.275 118.937C12.2494 121.088 11.9941 123.526 12.5519 125.842L12.6065 126.069C13.3585 129.222 14.9676 132.106 17.256 134.402C19.5444 136.698 22.423 138.316 25.5737 139.079C40.9402 142.748 56.8579 142.693 73.3268 138.916C76.5307 138.184 79.4669 136.572 81.805 134.263C84.1432 131.953 85.7908 129.037 86.5624 125.842C87.1202 123.526 86.8649 121.088 85.8393 118.937C84.8138 116.787 83.0802 115.054 80.9291 114.029L68.9427 108.319Z" fill="#D4D9E3"/>
<path opacity="0.05" d="M68.9427 108.319C66.7628 107.281 64.856 105.747 63.3746 103.84C61.8933 101.933 60.8785 99.7064 60.4114 97.3375L59.0141 90.252L49.5572 93.2903L40.1002 90.252L38.703 97.3375C38.2358 99.7064 37.221 101.933 35.7397 103.84C34.2583 105.747 32.3516 107.281 30.1717 108.319L18.1853 114.029C16.0342 115.054 14.3006 116.787 13.275 118.937C12.2494 121.088 11.9941 123.526 12.5519 125.842L12.6065 126.069C13.3585 129.222 14.9676 132.106 17.256 134.402C19.5444 136.698 22.423 138.316 25.5737 139.079C40.9402 142.748 56.8579 142.693 73.3268 138.916C76.5307 138.184 79.4669 136.572 81.805 134.263C84.1432 131.953 85.7908 129.037 86.5624 125.842C87.1202 123.526 86.8649 121.088 85.8393 118.937C84.8138 116.787 83.0802 115.054 80.9291 114.029L68.9427 108.319Z" fill="black"/>
<path d="M59.0481 99.3195C56.3677 101.504 53.0155 102.698 49.5575 102.698C46.0994 102.698 42.7472 101.504 40.0669 99.3195C38.5619 98.0928 37.3221 96.5727 36.4229 94.8519C35.5237 93.1311 34.9838 91.2453 34.8361 89.3093L33.7155 74.6253C33.549 72.4433 33.835 70.2505 34.5557 68.1842C35.2763 66.118 36.416 64.2229 37.9033 62.6177C39.3907 61.0125 41.1936 59.7319 43.199 58.8562C45.2044 57.9804 47.3691 57.5283 49.5574 57.5283H49.5575C51.7458 57.5283 53.9105 57.9804 55.9159 58.8561C57.9214 59.7319 59.7243 61.0125 61.2116 62.6177C62.6989 64.2229 63.8386 66.118 64.5593 68.1842C65.2799 70.2505 65.566 72.4433 65.3994 74.6253L64.2789 89.3094C64.1311 91.2454 63.5912 93.1311 62.692 94.8519C61.7928 96.5728 60.553 98.0928 59.0481 99.3195Z" fill="#D4D9E3"/>
<path d="M153.057 108.319C155.237 107.281 157.144 105.747 158.625 103.84C160.107 101.933 161.122 99.7064 161.589 97.3375L162.986 90.252L172.443 93.2903L181.9 90.252L183.297 97.3375C183.764 99.7064 184.779 101.933 186.26 103.84C187.742 105.747 189.649 107.281 191.828 108.319L203.815 114.029C205.966 115.054 207.699 116.787 208.725 118.937C209.751 121.088 210.006 123.526 209.448 125.842L209.394 126.069C208.642 129.222 207.032 132.106 204.744 134.402C202.456 136.698 199.577 138.316 196.426 139.079C181.06 142.748 165.142 142.693 148.673 138.916C145.469 138.184 142.533 136.572 140.195 134.263C137.857 131.953 136.209 129.037 135.438 125.842C134.88 123.526 135.135 121.088 136.161 118.937C137.186 116.787 138.92 115.054 141.071 114.029L153.057 108.319Z" fill="#D4D9E3"/>
<path opacity="0.05" d="M153.057 108.319C155.237 107.281 157.144 105.747 158.625 103.84C160.107 101.933 161.122 99.7064 161.589 97.3375L162.986 90.252L172.443 93.2903L181.9 90.252L183.297 97.3375C183.764 99.7064 184.779 101.933 186.26 103.84C187.742 105.747 189.649 107.281 191.828 108.319L203.815 114.029C205.966 115.054 207.699 116.787 208.725 118.937C209.751 121.088 210.006 123.526 209.448 125.842L209.394 126.069C208.642 129.222 207.032 132.106 204.744 134.402C202.456 136.698 199.577 138.316 196.426 139.079C181.06 142.748 165.142 142.693 148.673 138.916C145.469 138.184 142.533 136.572 140.195 134.263C137.857 131.953 136.209 129.037 135.438 125.842C134.88 123.526 135.135 121.088 136.161 118.937C137.186 116.787 138.92 115.054 141.071 114.029L153.057 108.319Z" fill="black"/>
<path d="M162.953 99.3195C165.633 101.504 168.985 102.698 172.443 102.698C175.901 102.698 179.253 101.504 181.934 99.3195C183.439 98.0928 184.679 96.5727 185.578 94.8519C186.477 93.1311 187.017 91.2453 187.165 89.3093L188.285 74.6253C188.452 72.4433 188.166 70.2505 187.445 68.1842C186.724 66.118 185.585 64.2229 184.097 62.6177C182.61 61.0125 180.807 59.7319 178.802 58.8562C176.796 57.9804 174.632 57.5283 172.443 57.5283H172.443C170.255 57.5283 168.09 57.9804 166.085 58.8561C164.079 59.7319 162.276 61.0125 160.789 62.6177C159.302 64.2229 158.162 66.118 157.441 68.1842C156.721 70.2505 156.435 72.4433 156.601 74.6253L157.722 89.3094C157.87 91.2454 158.409 93.1311 159.309 94.8519C160.208 96.5728 161.448 98.0928 162.953 99.3195Z" fill="#D4D9E3"/>
<path d="M149.572 121.327C145.235 119.26 141.441 116.208 138.493 112.414C135.546 108.62 133.527 104.189 132.597 99.4753L129.817 85.377L111 91.4226L92.183 85.377L89.4028 99.4753C88.4732 104.189 86.454 108.62 83.5065 112.414C80.559 116.208 76.765 119.26 72.4275 121.327L48.5774 132.688C44.2973 134.727 40.8479 138.175 38.8072 142.454C36.7666 146.734 36.2586 151.584 37.3685 156.193L37.4771 156.644C38.9733 162.918 42.1751 168.657 46.7284 173.225C51.2818 177.793 57.0096 181.014 63.2787 182.531C93.8543 189.831 125.527 189.723 158.296 182.207C164.671 180.75 170.513 177.544 175.165 172.948C179.818 168.352 183.096 162.55 184.632 156.193V156.193C185.741 151.584 185.233 146.734 183.193 142.454C181.152 138.175 177.703 134.727 173.423 132.688L149.572 121.327Z" fill="#D4D9E3"/>
<path d="M129.928 103.705H129.928C124.582 108.063 117.897 110.442 111 110.442C104.104 110.442 97.4185 108.063 92.073 103.705H92.0729C88.5106 100.801 85.5705 97.209 83.4286 93.1427C81.2866 89.0765 79.9867 84.62 79.6066 80.0398L77.6843 56.8749C77.302 52.2675 77.8795 47.631 79.3802 43.2582C80.881 38.8854 83.2724 34.8714 86.4034 31.4698C89.5344 28.0682 93.3369 25.3531 97.5706 23.4958C101.804 21.6386 106.377 20.6797 111 20.6797H111C115.624 20.6797 120.197 21.6386 124.43 23.4958C128.664 25.3531 132.467 28.0682 135.597 31.4698C138.728 34.8714 141.12 38.8854 142.621 43.2582C144.121 47.631 144.699 52.2675 144.317 56.8749L142.394 80.0398C142.014 84.62 140.714 89.0765 138.572 93.1427C136.43 97.209 133.49 100.801 129.928 103.705Z" fill="#E5E9F1"/>
<path d="M111 212.472C125.191 212.472 136.695 200.968 136.695 186.777C136.695 172.587 125.191 161.083 111 161.083C96.8095 161.083 85.3057 172.587 85.3057 186.777C85.3057 200.968 96.8095 212.472 111 212.472Z" fill="#2563EB"/>
<path d="M120.954 184.327H113.45V176.823C113.449 176.173 113.191 175.551 112.731 175.092C112.272 174.634 111.649 174.376 111 174.376C110.351 174.376 109.728 174.634 109.269 175.092C108.809 175.551 108.551 176.173 108.55 176.823V184.327H101.151C100.529 184.317 99.925 184.536 99.4555 184.944C98.986 185.352 98.6838 185.919 98.607 186.536C98.5735 186.877 98.6116 187.22 98.7189 187.545C98.8262 187.87 99.0002 188.169 99.2299 188.422C99.4596 188.675 99.7398 188.878 100.053 189.017C100.365 189.155 100.703 189.227 101.046 189.227H108.55V196.626C108.539 197.248 108.759 197.852 109.167 198.321C109.575 198.791 110.142 199.093 110.759 199.17C111.1 199.203 111.443 199.165 111.768 199.058C112.093 198.951 112.392 198.776 112.645 198.547C112.899 198.317 113.101 198.037 113.24 197.724C113.378 197.412 113.45 197.073 113.45 196.731V189.227H120.954C121.276 189.227 121.595 189.164 121.893 189.041C122.191 188.919 122.461 188.738 122.689 188.511C122.917 188.283 123.098 188.013 123.221 187.715C123.344 187.418 123.408 187.099 123.408 186.777C123.408 186.455 123.344 186.136 123.221 185.838C123.098 185.541 122.917 185.271 122.689 185.043C122.461 184.816 122.191 184.635 121.893 184.512C121.595 184.389 121.276 184.326 120.954 184.327V184.327Z" fill="white"/>
<defs>
<linearGradient id="paint0_linear_1856_37472" x1="111" y1="0" x2="111" y2="197.333" gradientUnits="userSpaceOnUse">
<stop stop-color="#FBFDFE"/>
<stop offset="1" stop-color="#F0F5FA"/>
</linearGradient>
</defs>
</svg>
