<svg width="31" height="23" viewBox="0 0 31 23" fill="none" xmlns="http://www.w3.org/2000/svg">
<path d="M2.52841 6.62722L-0.347168 22.5957H2.24402C3.982 22.5957 5.46719 21.3649 5.78319 19.6607L8.12156 6.62722H2.52841ZM5.90958 0.568047C4.83519 0.631164 3.824 1.7357 3.6344 2.65089L2.87601 6.02761H4.74039C7.48957 6.02761 8.46916 4.16568 8.46916 2.68245C8.46916 1.57791 7.93197 0.568047 6.13078 0.568047C6.06758 0.568047 5.97278 0.568047 5.90958 0.568047ZM15.2947 10.8245C15.6423 8.86785 16.5271 5.33333 20.6035 5.33333C23.2894 5.33333 24.427 7.38462 24.427 9.90927C24.427 13.1282 22.5626 17.1992 17.5067 17.1992H15.9479H14.0623L15.2947 10.8245ZM20.6035 0C14.8207 0 9.89115 4.13412 8.87996 9.8146L6.57317 22.5957H16.5271C26.165 22.5957 30.9682 16.0316 30.9682 9.18343C30.9682 3.97633 27.7766 0 20.6035 0Z" fill="url(#paint0_linear_503_28858)"/>
<defs>
<linearGradient id="paint0_linear_503_28858" x1="-0.347168" y1="22.5957" x2="31.2394" y2="21.7784" gradientUnits="userSpaceOnUse">
<stop stop-color="#7933B6"/>
<stop offset="1" stop-color="#632F92"/>
</linearGradient>
</defs>
</svg>
