<svg width="96" height="32" viewBox="0 0 96 32" fill="none" xmlns="http://www.w3.org/2000/svg">
<path d="M67.5286 6.62722L64.6531 22.5957H67.2443C68.9822 22.5957 70.4674 21.3649 70.7834 19.6607L73.1218 6.62722H67.5286ZM49.2956 6.50099L46.2936 22.5641H52.3924L53.372 17.0414L56.5951 22.5641H63.4523L63.5155 22.217L58.3331 14.1381L65.3483 6.9428L65.4115 6.62722H58.6491L54.4464 11.2978L55.3943 6.46943L49.2956 6.50099ZM36.6557 8.39448L36.6873 6.65878H31.3153L28.4714 22.5641H34.4753L35.9921 14.2012C36.3397 12.1183 37.8881 11.14 39.3417 11.14C40.4477 11.14 41.4905 11.8028 41.1113 13.7909L39.5313 22.5641H45.5984L47.1784 13.7594C48.1896 8.11045 45.5984 6.34319 42.1541 6.31164C42.1225 6.31164 42.0593 6.31164 42.0277 6.31164C40.3213 6.28008 38.2357 6.84813 36.6557 8.39448ZM70.9098 0.568047C69.8354 0.631164 68.8242 1.7357 68.6346 2.65089L67.8762 6.02761H69.7406C72.4898 6.02761 73.4694 4.16568 73.4694 2.68245C73.4694 1.57791 72.9322 0.568047 71.131 0.568047C71.0678 0.568047 70.973 0.568047 70.9098 0.568047ZM4.04477 0.0631164L0 22.5641H17.4115C17.5379 22.5641 17.6643 22.5641 17.8223 22.5641H21.8986C21.8986 22.5641 21.6458 27.8028 15.7683 27.4556C13.2719 27.3294 12.0395 25.1834 11.8815 23.6686H6.79394C7.10994 27.7081 10.8703 32.9152 18.0435 31.8107C23.0994 31.0217 26.1014 28.5286 27.7446 22.6272L30.6202 6.62722H24.553L23.0994 14.5799C22.8466 16.0631 22.0882 17.9882 20.0342 17.9882C17.9803 17.9882 17.7275 16.284 18.0435 14.5168L19.4654 6.65878H13.4615L12.0079 14.6114C11.8499 15.5266 11.8499 16.3787 11.9447 17.1677H7.45754L10.5227 0.0631164H4.04477ZM80.2949 10.8245C80.6425 8.86785 81.5273 5.33333 85.6037 5.33333C88.2897 5.33333 89.4273 7.38461 89.4273 9.90927C89.4273 13.1282 87.5629 17.1992 82.5069 17.1992H80.9482H79.0626L80.2949 10.8245ZM85.6037 0C79.8209 0 74.8914 4.13412 73.8802 9.8146L71.5734 22.5957H81.5273C91.1653 22.5957 95.9684 16.0316 95.9684 9.18343C95.9684 3.97633 92.7768 0 85.6037 0Z" fill="url(#paint0_linear_839_30636)"/>
<defs>
<linearGradient id="paint0_linear_839_30636" x1="1.78755e-07" y1="31.9611" x2="96.5608" y2="26.5478" gradientUnits="userSpaceOnUse">
<stop stop-color="#7933B6"/>
<stop offset="1" stop-color="#632F92"/>
</linearGradient>
</defs>
</svg>
